<?xml version="1.0" encoding="UTF-8" standalone="no"?>
<!DOCTYPE svg PUBLIC "-//W3C//DTD SVG 1.1//EN" "http://www.w3.org/Graphics/SVG/1.1/DTD/svg11.dtd">
<svg width="100%" height="100%" viewBox="0 0 800 628" version="1.1" xmlns="http://www.w3.org/2000/svg" xmlns:xlink="http://www.w3.org/1999/xlink" xml:space="preserve" xmlns:serif="http://www.serif.com/" style="fill-rule:evenodd;clip-rule:evenodd;stroke-linejoin:round;stroke-miterlimit:2;">
    <g transform="matrix(1,0,0,1,0,-86.0733)">
        <path d="M618.947,356.033L181.053,356.033L195.684,265.506L604.316,265.506L618.947,356.033Z" style="fill:rgb(97,172,210);fill-rule:nonzero;"/>
    </g>
    <g transform="matrix(1,0,0,1,0,-86.0733)">
        <path d="M604.316,265.506L195.684,265.506L215.284,144.563C219.495,118.458 245.305,101.775 270.905,108.47L278.567,110.55C358.167,131.413 441.809,131.464 521.43,110.622L529.114,108.636C554.694,101.941 580.503,118.492 584.714,144.617L604.316,265.506Z" style="fill:rgb(239,239,239);fill-rule:nonzero;"/>
    </g>
    <g transform="matrix(1,0,0,1,0,-86.0733)">
        <path d="M778.947,356.506L21.053,356.506C21.053,403.014 58.756,440.717 105.264,440.717L694.737,440.717C741.244,440.717 778.947,403.014 778.947,356.506Z" style="fill:rgb(239,239,239);fill-rule:nonzero;"/>
    </g>
    <g transform="matrix(1,0,0,1,0,-86.0733)">
        <path d="M231.228,692.297L269.823,692.297C320.206,692.297 361.052,661.98 361.052,611.595L361.052,577.559C361.052,559.539 346.441,544.928 328.42,544.928L172.633,544.928C154.612,544.928 140.002,559.539 140.002,577.559L140.002,611.595C140,661.978 180.844,692.297 231.228,692.297Z" style="fill:rgb(97,172,210);fill-rule:nonzero;"/>
    </g>
    <g transform="matrix(1,0,0,1,0,-86.0733)">
        <path d="M530.175,692.297L568.77,692.297C619.153,692.297 659.998,661.98 659.998,611.595L659.998,577.559C659.998,559.539 645.388,544.928 627.367,544.928L471.578,544.928C453.558,544.928 438.947,559.539 438.947,577.559L438.947,611.595C438.947,661.978 479.792,692.297 530.175,692.297Z" style="fill:rgb(97,172,210);fill-rule:nonzero;"/>
    </g>
    <g transform="matrix(1,0,0,1,0,-86.0733)">
        <path d="M778.947,334.981L636.872,334.981L605.586,141.278C602.639,122.989 592.005,106.819 576.488,96.706C560.956,86.586 541.744,83.538 523.837,88.217L516.116,90.255C440.169,110.133 359.872,110.134 283.947,90.238L276.239,88.213C258.3,83.527 239.1,86.642 223.566,96.764C208.045,106.878 197.455,122.928 194.506,141.198L163.134,334.98L21.053,334.98C9.425,334.978 0,344.406 0,356.031C0,414.073 47.22,461.294 105.262,461.294L694.736,461.294C752.778,461.294 799.998,414.073 799.998,356.031C800,344.408 790.575,334.981 778.947,334.981ZM236.067,147.917C237.145,141.231 240.867,135.628 246.547,131.93C252.242,128.219 259.002,127.186 265.536,128.887L273.231,130.947C356.169,152.684 443.837,152.712 526.736,131.012L534.445,129.011C541.014,127.295 547.766,128.392 553.453,132.1C559.131,135.798 562.852,141.288 563.933,147.991L579.581,244.456L220.414,244.456L236.067,147.917ZM213.608,286.559L586.391,286.559L594.217,334.98L205.781,334.98L213.608,286.559ZM694.737,419.191L105.262,419.191C77.814,419.191 54.402,402.348 45.711,377.086L754.286,377.086C745.598,402.348 722.186,419.191 694.737,419.191Z" style="fill-rule:nonzero;"/>
    </g>
    <g transform="matrix(1,0,0,1,0,-86.0733)">
        <path d="M627.369,524.455L471.58,524.455C444.117,524.455 421.417,545.508 418.278,570.77L381.72,570.77C378.583,545.508 355.884,524.455 328.419,524.455L172.631,524.455C143.03,524.455 117.894,547.956 117.894,577.558L117.894,611.594C117.894,670.553 166.167,713.928 231.227,713.928L269.822,713.928C334.23,713.928 381.127,671.823 382.059,612.875L417.938,612.875C418.87,671.822 465.766,713.928 530.175,713.928L568.77,713.928C633.83,713.928 679.998,670.553 679.998,611.594L679.998,577.559C680,547.958 656.97,524.455 627.369,524.455ZM269.825,671.822L231.23,671.822C196.298,671.822 160.002,652.797 160.002,611.592L160.002,577.558C160.002,571.175 166.248,566.559 172.633,566.559L328.422,566.559C334.808,566.559 338.948,571.173 338.948,577.558L338.948,611.594C338.947,652.8 304.753,671.822 269.825,671.822ZM637.895,611.595C637.895,652.8 603.702,671.825 568.773,671.825L530.178,671.825C495.247,671.825 458.95,652.8 458.95,611.595L458.95,577.559C458.95,571.177 465.197,566.561 471.581,566.561L627.37,566.561C633.756,566.561 637.897,571.175 637.897,577.559L637.897,611.595L637.895,611.595Z" style="fill-rule:nonzero;"/>
    </g>
</svg>
